<svg id="visual" viewBox="0 0 1920 1080" width="1920" height="1080" xmlns="http://www.w3.org/2000/svg" xmlns:xlink="http://www.w3.org/1999/xlink" version="1.1"><rect width="1920" height="1080" fill="#53565b"></rect><g><g transform="translate(342 966)"><path d="M0 -157L135.9 -78.5L135.9 78.5L0 157L-135.9 78.5L-135.9 -78.5Z" fill="#6495ED"></path></g><g transform="translate(812 346)"><path d="M0 -61L52.8 -30.5L52.8 30.5L0 61L-52.8 30.5L-52.8 -30.5Z" fill="#6495ED"></path></g><g transform="translate(1473 247)"><path d="M0 -126L109.1 -63L109.1 63L0 126L-109.1 63L-109.1 -63Z" fill="#6495ED"></path></g><g transform="translate(1281 507)"><path d="M0 -78L67.5 -39L67.5 39L0 78L-67.5 39L-67.5 -39Z" fill="#6495ED"></path></g><g transform="translate(115 370)"><path d="M0 -154L133.4 -77L133.4 77L0 154L-133.4 77L-133.4 -77Z" fill="#6495ED"></path></g><g transform="translate(918 786)"><path d="M0 -111L96.1 -55.5L96.1 55.5L0 111L-96.1 55.5L-96.1 -55.5Z" fill="#6495ED"></path></g><g transform="translate(14 1052)"><path d="M0 -60L52 -30L52 30L0 60L-52 30L-52 -30Z" fill="#6495ED"></path></g></g></svg>