<?xml version="1.0" standalone="no"?>
<svg xmlns:xlink="http://www.w3.org/1999/xlink" id="wave" style="transform:rotate(180deg); transition: 0.3s" viewBox="0 0 1440 490" version="1.1" xmlns="http://www.w3.org/2000/svg"><defs><linearGradient id="sw-gradient-0" x1="0" x2="0" y1="1" y2="0"><stop stop-color="rgba(83, 86, 91, 1)" offset="0%"/><stop stop-color="rgba(100, 149, 237, 1)" offset="100%"/></linearGradient></defs><path style="transform:translate(0, 0px); opacity:1" fill="url(#sw-gradient-0)" d="M0,147L60,171.5C120,196,240,245,360,236.8C480,229,600,163,720,114.3C840,65,960,33,1080,24.5C1200,16,1320,33,1440,89.8C1560,147,1680,245,1800,245C1920,245,2040,147,2160,138.8C2280,131,2400,212,2520,236.8C2640,261,2760,229,2880,245C3000,261,3120,327,3240,367.5C3360,408,3480,425,3600,375.7C3720,327,3840,212,3960,163.3C4080,114,4200,131,4320,155.2C4440,180,4560,212,4680,253.2C4800,294,4920,343,5040,351.2C5160,359,5280,327,5400,285.8C5520,245,5640,196,5760,171.5C5880,147,6000,147,6120,130.7C6240,114,6360,82,6480,98C6600,114,6720,180,6840,179.7C6960,180,7080,114,7200,89.8C7320,65,7440,82,7560,98C7680,114,7800,131,7920,155.2C8040,180,8160,212,8280,204.2C8400,196,8520,147,8580,122.5L8640,98L8640,490L8580,490C8520,490,8400,490,8280,490C8160,490,8040,490,7920,490C7800,490,7680,490,7560,490C7440,490,7320,490,7200,490C7080,490,6960,490,6840,490C6720,490,6600,490,6480,490C6360,490,6240,490,6120,490C6000,490,5880,490,5760,490C5640,490,5520,490,5400,490C5280,490,5160,490,5040,490C4920,490,4800,490,4680,490C4560,490,4440,490,4320,490C4200,490,4080,490,3960,490C3840,490,3720,490,3600,490C3480,490,3360,490,3240,490C3120,490,3000,490,2880,490C2760,490,2640,490,2520,490C2400,490,2280,490,2160,490C2040,490,1920,490,1800,490C1680,490,1560,490,1440,490C1320,490,1200,490,1080,490C960,490,840,490,720,490C600,490,480,490,360,490C240,490,120,490,60,490L0,490Z"/></svg>